<svg viewBox="0 0 512 512" xmlns="http://www.w3.org/2000/svg" fill-rule="evenodd" clip-rule="evenodd" stroke-linejoin="round" stroke-miterlimit="2"><path d="M255.994 78.576l154.782 88.06 62.007-35.803L256.557 6 39.252 130.833l62.007 35.802 154.727-88.059" fill="#52b0e7"/><path d="M40.343 131.503l62.569 36.12v178.733L256 434.767v70.911L39.218 381.17l1.131-249.671" fill="#3c76c3"/><path d="M196.023 221.333l60.266 34.793v70.903l-31.253-18.06-29.002-16.746-.01-70.89" fill="#2e9d4d"/><path d="M317.674 220.675l-61.381 35.434v70.906l60.255-34.812 1.126-71.528" fill="#256f44"/><path d="M471.664 131.503l-62.57 36.12v176.76l-74.85 45.18-78.238 45.2v70.912l.563.325 215.299-124.294-.2-250.212" fill="#2e3b69"/><path d="M256.28 256.11l-60.266-34.793v-.425l60.267-34.798.744-.43 30.504 17.615 30.133 17.394-61.381 35.438" fill="#9fd62b"/><path d="M119.384 263.903l60.267 34.795v70.903l-31.254-18.062-29.001-16.745-.011-70.89" fill="#3c76c3"/><path d="M239.92 263.903l-60.266 34.795v70.903l60.26-34.81.007-70.888" fill="#2e3b69"/><path d="M179.65 298.698l-60.261-34.79 30.504-18.038 29.76-17.189 60.27 35.227-60.27 34.79" fill="#52b0e7"/><path d="M274.48 265.725l60.266 34.795v70.902l-31.253-18.062-29.002-16.743-.011-70.892" fill="#3c76c3"/><path d="M395.023 265.725l-60.267 34.795v70.902l60.259-34.808.008-70.89" fill="#2e3b69"/><path d="M334.743 300.52l-60.263-34.792v-.425l30.504-17.613 29.759-17.187 60.27 35.225-60.27 34.792" fill="#52b0e7"/><path d="M198.456 310.437l60.265 34.795v70.901l-31.251-18.06-29.003-16.745-.011-70.89" fill="#3c76c3"/><path d="M318.99 310.437l-60.267 34.795v70.901l60.26-34.808.007-70.888" fill="#2e3b69"/><path d="M258.726 345.222l-60.261-34.791v-.426l30.503-17.613 29.758-17.188 60.27 35.227-60.27 34.791" fill="#52b0e7"/><path d="M196.023 126.527l60.266 34.795v70.903l-31.253-18.062-29.002-16.743-.01-70.893" fill="#3c76c3"/><path d="M317.674 125.886l-61.381 35.435v70.906l60.255-34.814 1.126-71.527" fill="#2e3b69"/><path d="M256.28 161.322l-60.266-34.795v-.425l60.267-34.798.744-.429 30.504 17.614 30.133 17.396-61.381 35.437" fill="#52b0e7"/><path d="M119.384 169.115l60.267 34.793v70.903l-31.254-18.06-29.001-16.746-.011-70.89" fill="#3c76c3"/><path d="M239.92 169.115l-60.266 34.793v70.903l60.26-34.81.007-70.886" fill="#2e3b69"/><path d="M179.65 203.91l-60.261-34.79 30.504-18.039 29.76-17.19 60.27 35.229-60.27 34.79" fill="#52b0e7"/><path d="M274.48 170.936l60.266 34.795v70.903l-31.253-18.062-29.002-16.745-.011-70.89" fill="#3c76c3"/><path d="M395.023 170.936l-60.267 34.795v70.903l60.259-34.81.008-70.888" fill="#2e3b69"/><path d="M334.743 205.731L274.48 170.94v-.425l30.504-17.613 29.759-17.188 60.27 35.226-60.27 34.792" fill="#52b0e7"/><path d="M198.456 215.649l60.265 34.793v70.903l-31.251-18.06-29.003-16.746-.011-70.89" fill="#3c76c3"/><path d="M318.99 215.649l-60.267 34.793v70.903l60.26-34.81.007-70.886" fill="#2e3b69"/><path d="M258.726 250.427l-60.261-34.79v-.425l30.503-17.615 29.758-17.189 60.27 35.229-60.27 34.79" fill="#52b0e7"/></svg>